<?xml version="1.0" encoding="UTF-8" standalone="no"?>
<!-- Created with Inkscape (http://www.inkscape.org/) -->

<svg
   xmlns:dc="http://purl.org/dc/elements/1.1/"
   xmlns:cc="http://creativecommons.org/ns#"
   xmlns:rdf="http://www.w3.org/1999/02/22-rdf-syntax-ns#"
   xmlns:svg="http://www.w3.org/2000/svg"
   xmlns="http://www.w3.org/2000/svg"
   xmlns:sodipodi="http://sodipodi.sourceforge.net/DTD/sodipodi-0.dtd"
   xmlns:inkscape="http://www.inkscape.org/namespaces/inkscape"
   width="46.578297mm"
   height="23.968489mm"
   viewBox="0 0 46.578297 23.968489"
   version="1.1"
   id="svg1635"
   inkscape:version="0.92.4 (5da689c313, 2019-01-14)"
   sodipodi:docname="rhino.min.svg">
  <defs
     id="defs1629" />
  <sodipodi:namedview
     id="base"
     pagecolor="#ffffff"
     bordercolor="#666666"
     borderopacity="1.0"
     inkscape:pageopacity="0.0"
     inkscape:pageshadow="2"
     inkscape:zoom="1.4"
     inkscape:cx="117.1268"
     inkscape:cy="-0.096163083"
     inkscape:document-units="mm"
     inkscape:current-layer="layer1"
     showgrid="false"
     fit-margin-top="0"
     fit-margin-left="0"
     fit-margin-right="0"
     fit-margin-bottom="0"
     inkscape:window-width="1440"
     inkscape:window-height="855"
     inkscape:window-x="0"
     inkscape:window-y="1"
     inkscape:window-maximized="1" />
  <metadata
     id="metadata1632">
    <rdf:RDF>
      <cc:Work
         rdf:about="">
        <dc:format>image/svg+xml</dc:format>
        <dc:type
           rdf:resource="http://purl.org/dc/dcmitype/StillImage" />
        <dc:title></dc:title>
      </cc:Work>
    </rdf:RDF>
  </metadata>
  <g
     inkscape:label="Layer 1"
     inkscape:groupmode="layer"
     id="layer1"
     transform="translate(-102.19895,-115.68243)">
    <path
       style="display:inline;opacity:1;fill:#1d1d1d;fill-opacity:1;stroke:none;stroke-width:0.13229166;stroke-linecap:butt;stroke-linejoin:miter;stroke-miterlimit:4;stroke-dasharray:none;stroke-opacity:1"
       d="m 112.29681,122.6952 c 1.34348,-4.17218 6.76918,-8.31084 11.40979,-6.6284 5.11415,1.85413 9.92989,0.19707 11.41307,-0.031 3.05196,0.79167 3.70498,0.90919 7.1501,0.78102 2.04436,0.26266 3.3687,1.28078 4.19325,2.66909 1.61303,1.83754 2.07388,3.24238 1.74057,4.53867 0.16259,1.43836 -0.30336,2.15407 -0.11762,3.29771 1.66973,10.2809 -0.16089,4.3127 -0.54609,-0.35595 -0.21917,1.968 -0.68317,3.629 -1.00368,4.3039 -0.10484,1.11585 1.42835,3.36333 1.54883,4.26701 -0.82999,0.18617 -2.2015,2.86247 -0.98502,4.05363 0.0546,-0.009 -3.36157,0.12199 -4.33364,0.0226 -0.18761,-0.0192 0.51342,-0.91129 1.41145,-1.10485 0.25472,-0.0549 0.41882,-1.24657 0.27789,-1.62928 -0.17097,-0.46429 -1.4805,0.69613 -2.09008,1.05621 -0.17963,0.10612 0.006,1.06085 0.14968,1.44004 0.0347,0.0914 -3.80956,0.0978 -3.80956,0.0978 -0.50545,-0.33662 0.52623,-1.16547 1.21808,-1.2215 2.62983,-5.0741 0.40067,-8.13103 -0.14045,-8.61804 -1.92177,4.24037 -10.96855,3.35149 -13.1654,2.60545 0.15066,1.23032 0.44161,4.7063 1.7203,6.25753 0.33279,0.20899 -0.0153,0.76796 -0.22582,0.90462 -0.0387,0.0252 -2.88431,0.0873 -3.75088,0.0612 -0.1749,-0.3679 0.61817,-1.14068 1.04068,-1.44031 0.25217,-1.18846 -1.96381,-3.24612 -2.26532,-4.8389 -0.27504,-0.0832 -0.4344,1.19775 -0.52093,2.6285 -0.29421,1.9844 -1.23853,1.98104 -0.40382,2.84442 1.65656,1.38108 -2.99501,0.73877 -4.25341,0.7446 -0.15024,-0.99291 0.83129,-0.91038 1.33105,-1.13558 1.19458,-0.57789 0.20948,-5.03561 -0.77477,-6.32088 -0.35275,0.12929 -1.64228,0.2646 -2.57542,0.60524 -0.42602,0.91679 -2.81361,5.03333 -3.69779,6.17507 -0.39682,0.70833 -2.97864,0.72735 -4.39315,0.49963 -0.18999,0.11757 -0.69921,-1.49183 -1.23305,-1.73382 -1.79017,-0.17217 -4.74836,-3.34535 -4.38632,-4.77787 0.66782,0.46958 2.94064,1.14542 4.04645,0.93833 -0.21609,-0.17813 -1.08564,-2.04966 -0.5666,-1.94559 0.20983,0.0421 1.86062,-0.0794 2.3404,-0.26524 1.17286,-1.04416 1.36973,-3.16058 1.57511,-4.99299 -0.64509,0.0921 -1.37231,-2.57418 -1.11354,-3.24502 0.42964,0.80254 1.32214,1.71088 1.89948,1.82378 0.24578,-1.5173 0.29295,-3.41859 1.88618,-2.33083 z"
       id="rhino"
       inkscape:connector-curvature="0"
       sodipodi:nodetypes="csccccsccccssssscccccsccccccccccccccsccccc"
       inkscape:label="#path6902" />
  </g>
</svg>
